<svg width="1200" height="900" viewBox="0 0 1200 900" fill="none" xmlns="http://www.w3.org/2000/svg">
  <rect width="1200" height="900" fill="#111416"/>
  <rect width="1200" height="900" fill="url(#room)"/>

  <rect x="0" y="0" width="1200" height="610" fill="url(#mirror)"/>
  <rect x="0" y="610" width="1200" height="290" fill="url(#floor)"/>
  <rect x="0" y="80" width="930" height="10" fill="#E6ECEE" fill-opacity="0.7"/>
  <rect x="920" y="0" width="8" height="610" fill="#D9D9D9" fill-opacity="0.45"/>
  <rect x="1112" y="0" width="88" height="900" fill="url(#wood)"/>
  <rect x="0" y="0" width="1200" height="900" fill="url(#vignette)"/>

  <rect x="544" y="44" width="230" height="26" rx="13" fill="#B05CF4" fill-opacity="0.8"/>
  <rect x="86" y="740" width="1040" height="14" rx="7" fill="#0D0E10"/>

  <g opacity="0.45">
    <circle cx="134" cy="526" r="48" fill="#16191C"/>
    <circle cx="134" cy="526" r="14" fill="#50565D"/>
    <circle cx="242" cy="528" r="52" fill="#16191C"/>
    <circle cx="242" cy="528" r="15" fill="#50565D"/>
    <circle cx="360" cy="528" r="56" fill="#16191C"/>
    <circle cx="360" cy="528" r="16" fill="#50565D"/>
    <circle cx="492" cy="528" r="54" fill="#16191C"/>
    <circle cx="492" cy="528" r="16" fill="#50565D"/>
    <circle cx="626" cy="530" r="60" fill="#16191C"/>
    <circle cx="626" cy="530" r="18" fill="#50565D"/>
    <circle cx="770" cy="532" r="64" fill="#16191C"/>
    <circle cx="770" cy="532" r="18" fill="#50565D"/>
    <circle cx="930" cy="530" r="62" fill="#16191C"/>
    <circle cx="930" cy="530" r="18" fill="#50565D"/>
    <circle cx="1074" cy="526" r="54" fill="#16191C"/>
    <circle cx="1074" cy="526" r="15" fill="#50565D"/>
  </g>

  <g opacity="0.36">
    <circle cx="112" cy="602" r="40" fill="#15181B"/>
    <circle cx="196" cy="600" r="42" fill="#15181B"/>
    <circle cx="290" cy="598" r="44" fill="#15181B"/>
    <circle cx="392" cy="600" r="46" fill="#15181B"/>
    <circle cx="502" cy="600" r="46" fill="#15181B"/>
    <circle cx="620" cy="602" r="48" fill="#15181B"/>
    <circle cx="748" cy="602" r="48" fill="#15181B"/>
    <circle cx="876" cy="602" r="46" fill="#15181B"/>
    <circle cx="990" cy="600" r="44" fill="#15181B"/>
    <circle cx="1086" cy="598" r="40" fill="#15181B"/>
  </g>

  <g opacity="0.48">
    <rect x="84" y="560" width="1030" height="18" rx="9" fill="#2F353A"/>
    <rect x="84" y="642" width="1030" height="18" rx="9" fill="#2B3034"/>
  </g>

  <g opacity="0.28">
    <path d="M182 268C212 244 242 238 272 252C304 268 306 312 282 340C254 372 214 372 186 342C160 314 158 286 182 268Z" fill="#8C949B"/>
    <rect x="206" y="340" width="44" height="114" rx="18" fill="#8C949B"/>
    <path d="M220 454L188 560" stroke="#8C949B" stroke-width="22" stroke-linecap="round"/>
    <path d="M244 454L284 558" stroke="#8C949B" stroke-width="22" stroke-linecap="round"/>
    <path d="M210 378L150 438" stroke="#8C949B" stroke-width="22" stroke-linecap="round"/>
    <path d="M246 378L312 432" stroke="#8C949B" stroke-width="22" stroke-linecap="round"/>
  </g>

  <g filter="url(#blurShadow)">
    <ellipse cx="560" cy="780" rx="236" ry="52" fill="#000000" fill-opacity="0.36"/>
  </g>

  <g>
    <rect x="406" y="648" width="264" height="56" rx="26" fill="#1B1F23"/>
    <rect x="514" y="690" width="80" height="98" rx="22" fill="#191D20"/>
    <rect x="332" y="710" width="318" height="48" rx="24" fill="#2A3035"/>
    <rect x="386" y="730" width="200" height="22" rx="11" fill="#0E1012" fill-opacity="0.7"/>
  </g>

  <g>
    <ellipse cx="584" cy="246" rx="64" ry="56" fill="#121518"/>
    <path d="M520 242C520 210 548 184 586 184C624 184 646 210 646 242V264H520V242Z" fill="#1B1F23"/>
    <ellipse cx="520" cy="250" rx="42" ry="50" fill="#23282D"/>
    <ellipse cx="652" cy="250" rx="42" ry="50" fill="#23282D"/>
    <rect x="546" y="224" width="82" height="24" rx="12" fill="#24282C"/>
  </g>

  <g>
    <path d="M438 344C454 290 508 268 584 268C658 268 722 290 736 344L768 516C776 572 732 620 674 620H498C444 620 402 576 410 522L438 344Z" fill="#F0EEE8"/>
    <path d="M504 432H670" stroke="#C5C2BA" stroke-width="6" stroke-linecap="round" stroke-dasharray="10 14"/>
    <path d="M548 420H626" stroke="#0F1316" stroke-width="8" stroke-linecap="round"/>
    <path d="M560 448H618" stroke="#0F1316" stroke-width="8" stroke-linecap="round"/>
    <path d="M500 332C520 306 548 294 584 294C618 294 648 306 670 332" stroke="#E9E5DE" stroke-width="22" stroke-linecap="round"/>
  </g>

  <g>
    <path d="M462 362L360 522" stroke="#D7B79A" stroke-width="42" stroke-linecap="round"/>
    <path d="M714 362L798 530" stroke="#D7B79A" stroke-width="42" stroke-linecap="round"/>
    <path d="M520 610L446 844" stroke="#111417" stroke-width="66" stroke-linecap="round"/>
    <path d="M640 610L704 844" stroke="#111417" stroke-width="66" stroke-linecap="round"/>
    <path d="M520 324L450 462" stroke="#D7B79A" stroke-width="34" stroke-linecap="round"/>
    <path d="M650 324L738 470" stroke="#D7B79A" stroke-width="34" stroke-linecap="round"/>
  </g>

  <g>
    <rect x="280" y="470" width="126" height="24" rx="12" fill="#AEB5BC"/>
    <circle cx="266" cy="482" r="42" fill="#15181B"/>
    <circle cx="252" cy="482" r="20" fill="#242A30"/>
    <rect x="774" y="482" width="126" height="24" rx="12" fill="#AEB5BC"/>
    <circle cx="914" cy="494" r="42" fill="#15181B"/>
    <circle cx="928" cy="494" r="20" fill="#242A30"/>
  </g>

  <rect x="0" y="0" width="1200" height="900" stroke="#FFFFFF" stroke-opacity="0.08" stroke-width="6"/>

  <defs>
    <linearGradient id="room" x1="0" y1="0" x2="1200" y2="900" gradientUnits="userSpaceOnUse">
      <stop stop-color="#252B2E"/>
      <stop offset="0.42" stop-color="#1A1E21"/>
      <stop offset="1" stop-color="#121416"/>
    </linearGradient>
    <linearGradient id="mirror" x1="0" y1="0" x2="1200" y2="610" gradientUnits="userSpaceOnUse">
      <stop stop-color="#2B3032"/>
      <stop offset="0.55" stop-color="#202528"/>
      <stop offset="1" stop-color="#1B1E22"/>
    </linearGradient>
    <linearGradient id="floor" x1="600" y1="610" x2="600" y2="900" gradientUnits="userSpaceOnUse">
      <stop stop-color="#464B50"/>
      <stop offset="1" stop-color="#272C30"/>
    </linearGradient>
    <linearGradient id="wood" x1="1112" y1="0" x2="1200" y2="900" gradientUnits="userSpaceOnUse">
      <stop stop-color="#5A4237"/>
      <stop offset="1" stop-color="#6A4B3C"/>
    </linearGradient>
    <radialGradient id="vignette" cx="0" cy="0" r="1" gradientUnits="userSpaceOnUse" gradientTransform="translate(600 420) rotate(90) scale(560 780)">
      <stop stop-color="#000000" stop-opacity="0"/>
      <stop offset="1" stop-color="#000000" stop-opacity="0.36"/>
    </radialGradient>
    <filter id="blurShadow" x="264" y="688" width="592" height="184" filterUnits="userSpaceOnUse" color-interpolation-filters="sRGB">
      <feFlood flood-opacity="0" result="BackgroundImageFix"/>
      <feBlend mode="normal" in="SourceGraphic" in2="BackgroundImageFix" result="shape"/>
      <feGaussianBlur stdDeviation="30" result="effect1_foregroundBlur_1_1"/>
    </filter>
  </defs>
</svg>